<svg width="59" height="59" viewBox="0 0 59 59" fill="none" xmlns="http://www.w3.org/2000/svg">
<rect width="59" height="59" rx="29.5" fill="#0A0058"/>
<mask id="path-2-outside-1_60_38" maskUnits="userSpaceOnUse" x="21.5" y="1.34921" width="16" height="54" fill="black">
<rect fill="white" x="21.5" y="1.34921" width="16" height="54"/>
<path d="M29.4873 14.6305C27.7459 14.6305 26.235 14.0415 24.9546 12.8635C23.7254 11.6855 23.1108 10.277 23.1108 8.63809C23.1108 6.99915 23.7254 5.59068 24.9546 4.41269C26.235 3.2347 27.7459 2.64571 29.4873 2.64571C31.2287 2.64571 32.714 3.2347 33.9432 4.41269C35.1724 5.59068 35.787 6.99915 35.787 8.63809C35.787 10.277 35.1724 11.6855 33.9432 12.8635C32.714 14.0415 31.2287 14.6305 29.4873 14.6305ZM22.8803 19.0095H36.0175V54.3492H22.8803V19.0095Z"/>
</mask>
<path d="M29.4873 14.6305C27.7459 14.6305 26.235 14.0415 24.9546 12.8635C23.7254 11.6855 23.1108 10.277 23.1108 8.63809C23.1108 6.99915 23.7254 5.59068 24.9546 4.41269C26.235 3.2347 27.7459 2.64571 29.4873 2.64571C31.2287 2.64571 32.714 3.2347 33.9432 4.41269C35.1724 5.59068 35.787 6.99915 35.787 8.63809C35.787 10.277 35.1724 11.6855 33.9432 12.8635C32.714 14.0415 31.2287 14.6305 29.4873 14.6305ZM22.8803 19.0095H36.0175V54.3492H22.8803V19.0095Z" fill="#00FFD9"/>
<path d="M24.9546 12.8635L24.4714 13.3677L24.4765 13.3727L24.4817 13.3775L24.9546 12.8635ZM24.9546 4.41269L24.4817 3.89871L24.4765 3.90352L24.4714 3.90845L24.9546 4.41269ZM22.8803 19.0095V18.3111H22.1819V19.0095H22.8803ZM36.0175 19.0095H36.7159V18.3111H36.0175V19.0095ZM36.0175 54.3492V55.0476H36.7159V54.3492H36.0175ZM22.8803 54.3492H22.1819V55.0476H22.8803V54.3492ZM29.4873 13.9321C27.9209 13.9321 26.5789 13.4088 25.4275 12.3495L24.4817 13.3775C25.8912 14.6742 27.5709 15.3289 29.4873 15.3289V13.9321ZM25.4378 12.3592C24.3401 11.3072 23.8092 10.0785 23.8092 8.63809H22.4124C22.4124 10.4756 23.1107 12.0638 24.4714 13.3677L25.4378 12.3592ZM23.8092 8.63809C23.8092 7.19767 24.3401 5.96894 25.4378 4.91694L24.4714 3.90845C23.1107 5.21242 22.4124 6.80062 22.4124 8.63809H23.8092ZM25.4275 4.92667C26.5789 3.8674 27.9209 3.34412 29.4873 3.34412V1.94729C27.5709 1.94729 25.8912 2.602 24.4817 3.89871L25.4275 4.92667ZM29.4873 3.34412C31.0532 3.34412 32.364 3.86668 33.4599 4.91694L34.4264 3.90845C33.0639 2.60272 31.4042 1.94729 29.4873 1.94729V3.34412ZM33.4599 4.91694C34.5577 5.96894 35.0886 7.19767 35.0886 8.63809H36.4854C36.4854 6.80062 35.7871 5.21242 34.4264 3.90845L33.4599 4.91694ZM35.0886 8.63809C35.0886 10.0785 34.5577 11.3072 33.4599 12.3592L34.4264 13.3677C35.7871 12.0638 36.4854 10.4756 36.4854 8.63809H35.0886ZM33.4599 12.3592C32.364 13.4095 31.0532 13.9321 29.4873 13.9321V15.3289C31.4042 15.3289 33.0639 14.6735 34.4264 13.3677L33.4599 12.3592ZM22.8803 19.7079H36.0175V18.3111H22.8803V19.7079ZM35.319 19.0095V54.3492H36.7159V19.0095H35.319ZM36.0175 53.6508H22.8803V55.0476H36.0175V53.6508ZM23.5787 54.3492V19.0095H22.1819V54.3492H23.5787Z" fill="#0F737E" mask="url(#path-2-outside-1_60_38)"/>
</svg>
